<svg xmlns="http://www.w3.org/2000/svg" xmlns:xlink="http://www.w3.org/1999/xlink" width="400" zoomAndPan="magnify" viewBox="0 0 300 37.5" height="50" preserveAspectRatio="xMidYMid meet" version="1.0"><defs><g/><clipPath id="5f00bcdaff"><path d="M 3 3 L 297 3 L 297 37.007812 L 3 37.007812 Z M 3 3 " clip-rule="nonzero"/></clipPath><clipPath id="05bcc566eb"><path d="M 1 0.789062 L 32 0.789062 L 32 30 L 1 30 Z M 1 0.789062 " clip-rule="nonzero"/></clipPath><clipPath id="ad904d3ed0"><rect x="0" width="294" y="0" height="35"/></clipPath></defs><g clip-path="url(#5f00bcdaff)"><g transform="matrix(1, 0, 0, 1, 3, 3)"><g clip-path="url(#ad904d3ed0)"><g clip-path="url(#05bcc566eb)"><g fill="#e0bea2" fill-opacity="1"><g transform="translate(0.718119, 29.655464)"><g><path d="M 4.609375 -5.328125 L 14.859375 -28.71875 L 15.578125 -28.71875 L 26.40625 -3.8125 C 26.800781 -2.894531 27.175781 -2.21875 27.53125 -1.78125 C 27.894531 -1.34375 28.273438 -1.054688 28.671875 -0.921875 C 29.078125 -0.785156 29.628906 -0.71875 30.328125 -0.71875 L 30.328125 0 L 19.03125 0 L 19.03125 -0.71875 C 19.988281 -0.71875 20.707031 -0.890625 21.1875 -1.234375 C 21.675781 -1.585938 21.921875 -2.054688 21.921875 -2.640625 C 21.921875 -3.148438 21.742188 -3.78125 21.390625 -4.53125 L 19.3125 -9.25 L 8.21875 -9.25 L 5.921875 -4 C 5.660156 -3.46875 5.53125 -2.988281 5.53125 -2.5625 C 5.53125 -1.332031 6.519531 -0.71875 8.5 -0.71875 L 8.5 0 L 0.5625 0 L 0.5625 -0.71875 C 1.226562 -0.800781 1.765625 -0.992188 2.171875 -1.296875 C 2.585938 -1.609375 2.960938 -2.054688 3.296875 -2.640625 C 3.640625 -3.234375 4.078125 -4.128906 4.609375 -5.328125 Z M 18.671875 -10.78125 L 13.78125 -21.953125 L 8.890625 -10.78125 Z M 18.671875 -10.78125 "/></g></g></g></g><g fill="#e0bea2" fill-opacity="1"><g transform="translate(31.604105, 29.655464)"><g><path d="M 26.328125 -7.21875 L 26.328125 -23.71875 C 26.328125 -24.914062 26.109375 -25.722656 25.671875 -26.140625 C 25.242188 -26.554688 24.457031 -26.773438 23.3125 -26.796875 L 22.3125 -26.796875 L 22.3125 -27.515625 L 32.453125 -27.515625 L 32.453125 -26.796875 L 31.609375 -26.796875 C 30.535156 -26.796875 29.769531 -26.726562 29.3125 -26.59375 C 28.863281 -26.46875 28.550781 -26.15625 28.375 -25.65625 C 28.207031 -25.164062 28.125 -24.359375 28.125 -23.234375 L 28.125 0.328125 L 27.5625 0.328125 L 7.890625 -21.828125 L 7.890625 -4.640625 C 7.890625 -3.148438 8.1875 -2.125 8.78125 -1.5625 C 9.382812 -1 10.425781 -0.71875 11.90625 -0.71875 L 11.90625 0 L 1.96875 0 L 1.96875 -0.71875 L 2.203125 -0.71875 C 3.484375 -0.71875 4.457031 -0.953125 5.125 -1.421875 C 5.789062 -1.890625 6.125 -2.75 6.125 -4 L 6.125 -23.59375 C 5.4375 -24.769531 4.648438 -25.597656 3.765625 -26.078125 C 2.878906 -26.554688 1.796875 -26.796875 0.515625 -26.796875 L 0.515625 -27.515625 L 8.53125 -27.515625 Z M 26.328125 -7.21875 "/></g></g></g><g fill="#e0bea2" fill-opacity="1"><g transform="translate(64.57319, 29.655464)"><g><path d="M 17.546875 -28.125 C 18.984375 -28.125 20.242188 -27.988281 21.328125 -27.71875 C 22.410156 -27.457031 23.5 -27.113281 24.59375 -26.6875 C 25.375 -26.382812 25.84375 -26.234375 26 -26.234375 C 26.320312 -26.234375 26.601562 -26.394531 26.84375 -26.71875 C 27.082031 -27.039062 27.226562 -27.507812 27.28125 -28.125 L 28.046875 -28.125 L 28.765625 -19.34375 L 28.046875 -19.34375 C 27.671875 -20.875 26.945312 -22.1875 25.875 -23.28125 C 24.8125 -24.375 23.570312 -25.195312 22.15625 -25.75 C 20.738281 -26.3125 19.296875 -26.59375 17.828125 -26.59375 C 15.828125 -26.59375 13.984375 -26.09375 12.296875 -25.09375 C 10.617188 -24.09375 9.269531 -22.625 8.25 -20.6875 C 7.238281 -18.75 6.734375 -16.429688 6.734375 -13.734375 C 6.734375 -11.253906 7.257812 -9.039062 8.3125 -7.09375 C 9.363281 -5.144531 10.789062 -3.628906 12.59375 -2.546875 C 14.394531 -1.460938 16.351562 -0.921875 18.46875 -0.921875 C 19.59375 -0.921875 20.632812 -1.070312 21.59375 -1.375 C 22.550781 -1.6875 23.566406 -2.203125 24.640625 -2.921875 L 24.640625 -10.859375 C 24.640625 -12.035156 24.332031 -12.851562 23.71875 -13.3125 C 23.101562 -13.78125 22.128906 -14.03125 20.796875 -14.0625 L 20.796875 -14.78125 L 32.609375 -14.78125 L 32.609375 -14.0625 C 31.617188 -13.976562 30.875 -13.828125 30.375 -13.609375 C 29.882812 -13.398438 29.523438 -13.03125 29.296875 -12.5 C 29.078125 -11.96875 28.96875 -11.164062 28.96875 -10.09375 L 28.96875 -2.28125 C 27.019531 -1.21875 25.28125 -0.472656 23.75 -0.046875 C 22.226562 0.378906 20.359375 0.59375 18.140625 0.59375 C 14.671875 0.59375 11.691406 -0.0703125 9.203125 -1.40625 C 6.722656 -2.738281 4.851562 -4.4375 3.59375 -6.5 C 2.34375 -8.570312 1.71875 -10.707031 1.71875 -12.90625 C 1.71875 -15.675781 2.414062 -18.222656 3.8125 -20.546875 C 5.21875 -22.867188 7.128906 -24.710938 9.546875 -26.078125 C 11.972656 -27.441406 14.640625 -28.125 17.546875 -28.125 Z M 17.546875 -28.125 "/></g></g></g><g fill="#e0bea2" fill-opacity="1"><g transform="translate(97.542274, 29.655464)"><g><path d="M 23.59375 -21.4375 L 22.921875 -21.4375 C 22.648438 -22.957031 22.15625 -24.082031 21.4375 -24.8125 C 20.71875 -25.550781 19.710938 -25.921875 18.421875 -25.921875 L 9.734375 -25.921875 L 9.734375 -15.296875 L 16.859375 -15.296875 C 18.148438 -15.296875 19.0625 -15.617188 19.59375 -16.265625 C 20.125 -16.910156 20.40625 -17.925781 20.4375 -19.3125 L 21.15625 -19.3125 L 21.15625 -9.609375 L 20.4375 -9.609375 C 20.4375 -11.003906 20.164062 -12.035156 19.625 -12.703125 C 19.09375 -13.367188 18.144531 -13.703125 16.78125 -13.703125 L 9.734375 -13.703125 L 9.734375 -3.640625 C 9.734375 -2.285156 10.269531 -1.609375 11.34375 -1.609375 L 18.390625 -1.609375 C 19.859375 -1.609375 21.148438 -2.050781 22.265625 -2.9375 C 23.390625 -3.832031 24.300781 -5.132812 25 -6.84375 L 25.84375 -6.84375 L 23.59375 0 L 1.4375 0 L 1.4375 -0.71875 C 2.832031 -0.71875 3.84375 -0.953125 4.46875 -1.421875 C 5.09375 -1.890625 5.40625 -2.765625 5.40625 -4.046875 L 5.40625 -23.75 C 5.40625 -24.820312 5.09375 -25.597656 4.46875 -26.078125 C 3.84375 -26.554688 2.832031 -26.796875 1.4375 -26.796875 L 1.4375 -27.515625 L 23.28125 -27.515625 Z M 23.59375 -21.4375 "/></g></g></g><g fill="#e0bea2" fill-opacity="1"><g transform="translate(124.262063, 29.655464)"><g><path d="M 14.015625 -26.796875 C 12.628906 -26.796875 11.632812 -26.578125 11.03125 -26.140625 C 10.4375 -25.703125 10.140625 -24.816406 10.140625 -23.484375 L 10.140625 -3.359375 C 10.140625 -2.804688 10.25 -2.40625 10.46875 -2.15625 C 10.695312 -1.914062 11.082031 -1.796875 11.625 -1.796875 L 17.59375 -1.796875 C 18.976562 -1.796875 20.125 -1.976562 21.03125 -2.34375 C 21.9375 -2.707031 22.71875 -3.296875 23.375 -4.109375 C 24.03125 -4.921875 24.664062 -6.078125 25.28125 -7.578125 L 25.953125 -7.328125 L 23.640625 0 L 1.6875 0 L 1.6875 -0.71875 L 1.96875 -0.71875 C 3.320312 -0.71875 4.300781 -0.957031 4.90625 -1.4375 C 5.507812 -1.914062 5.8125 -2.785156 5.8125 -4.046875 L 5.8125 -23.515625 C 5.8125 -24.742188 5.492188 -25.597656 4.859375 -26.078125 C 4.234375 -26.554688 3.253906 -26.796875 1.921875 -26.796875 L 1.6875 -26.796875 L 1.6875 -27.515625 L 14.015625 -27.515625 Z M 14.015625 -26.796875 "/></g></g></g><g fill="#e0bea2" fill-opacity="1"><g transform="translate(150.981841, 29.655464)"><g><path d="M 10.09375 -28.125 C 11 -28.125 11.785156 -28.035156 12.453125 -27.859375 C 13.128906 -27.691406 13.8125 -27.457031 14.5 -27.15625 C 14.84375 -27.03125 15.179688 -26.910156 15.515625 -26.796875 C 15.859375 -26.691406 16.160156 -26.640625 16.421875 -26.640625 C 17.066406 -26.640625 17.578125 -27.132812 17.953125 -28.125 L 18.703125 -28.125 L 18.703125 -18.984375 L 17.953125 -18.984375 C 17.816406 -20.398438 17.394531 -21.6875 16.6875 -22.84375 C 15.976562 -24.007812 15.09375 -24.925781 14.03125 -25.59375 C 12.976562 -26.257812 11.851562 -26.59375 10.65625 -26.59375 C 9.34375 -26.59375 8.21875 -26.195312 7.28125 -25.40625 C 6.351562 -24.625 5.890625 -23.675781 5.890625 -22.5625 C 5.890625 -21.25 6.53125 -20.113281 7.8125 -19.15625 C 8.71875 -18.476562 9.988281 -17.675781 11.625 -16.75 C 13.0625 -15.863281 14.257812 -15.097656 15.21875 -14.453125 C 16.1875 -13.816406 17.082031 -13.125 17.90625 -12.375 C 18.65625 -11.65625 19.25 -10.828125 19.6875 -9.890625 C 20.132812 -8.960938 20.359375 -8.003906 20.359375 -7.015625 C 20.359375 -5.648438 19.984375 -4.378906 19.234375 -3.203125 C 18.484375 -2.023438 17.457031 -1.097656 16.15625 -0.421875 C 14.863281 0.253906 13.445312 0.59375 11.90625 0.59375 C 10.914062 0.59375 10.035156 0.503906 9.265625 0.328125 C 8.503906 0.160156 7.710938 -0.0664062 6.890625 -0.359375 C 5.984375 -0.679688 5.300781 -0.84375 4.84375 -0.84375 C 4.125 -0.84375 3.578125 -0.363281 3.203125 0.59375 L 2.484375 0.59375 L 2.484375 -8.65625 L 3.203125 -8.65625 C 3.660156 -6.28125 4.5625 -4.394531 5.90625 -3 C 7.257812 -1.613281 9.003906 -0.921875 11.140625 -0.921875 C 12.660156 -0.921875 13.914062 -1.332031 14.90625 -2.15625 C 15.894531 -2.988281 16.390625 -4.03125 16.390625 -5.28125 C 16.390625 -5.925781 16.269531 -6.515625 16.03125 -7.046875 C 15.789062 -7.585938 15.390625 -8.164062 14.828125 -8.78125 C 14.316406 -9.3125 13.59375 -9.890625 12.65625 -10.515625 C 11.71875 -11.140625 10.476562 -11.921875 8.9375 -12.859375 C 7.625 -13.660156 6.617188 -14.296875 5.921875 -14.765625 C 5.234375 -15.234375 4.710938 -15.640625 4.359375 -15.984375 C 3.003906 -17.367188 2.328125 -19.039062 2.328125 -21 C 2.328125 -22.332031 2.664062 -23.535156 3.34375 -24.609375 C 4.019531 -25.691406 4.945312 -26.546875 6.125 -27.171875 C 7.300781 -27.804688 8.625 -28.125 10.09375 -28.125 Z M 10.09375 -28.125 "/></g></g></g><g fill="#e0bea2" fill-opacity="1"><g transform="translate(173.094768, 29.655464)"><g/></g></g><g fill="#e0bea2" fill-opacity="1"><g transform="translate(183.109675, 29.655464)"><g><path d="M 10.09375 -28.125 C 11 -28.125 11.785156 -28.035156 12.453125 -27.859375 C 13.128906 -27.691406 13.8125 -27.457031 14.5 -27.15625 C 14.84375 -27.03125 15.179688 -26.910156 15.515625 -26.796875 C 15.859375 -26.691406 16.160156 -26.640625 16.421875 -26.640625 C 17.066406 -26.640625 17.578125 -27.132812 17.953125 -28.125 L 18.703125 -28.125 L 18.703125 -18.984375 L 17.953125 -18.984375 C 17.816406 -20.398438 17.394531 -21.6875 16.6875 -22.84375 C 15.976562 -24.007812 15.09375 -24.925781 14.03125 -25.59375 C 12.976562 -26.257812 11.851562 -26.59375 10.65625 -26.59375 C 9.34375 -26.59375 8.21875 -26.195312 7.28125 -25.40625 C 6.351562 -24.625 5.890625 -23.675781 5.890625 -22.5625 C 5.890625 -21.25 6.53125 -20.113281 7.8125 -19.15625 C 8.71875 -18.476562 9.988281 -17.675781 11.625 -16.75 C 13.0625 -15.863281 14.257812 -15.097656 15.21875 -14.453125 C 16.1875 -13.816406 17.082031 -13.125 17.90625 -12.375 C 18.65625 -11.65625 19.25 -10.828125 19.6875 -9.890625 C 20.132812 -8.960938 20.359375 -8.003906 20.359375 -7.015625 C 20.359375 -5.648438 19.984375 -4.378906 19.234375 -3.203125 C 18.484375 -2.023438 17.457031 -1.097656 16.15625 -0.421875 C 14.863281 0.253906 13.445312 0.59375 11.90625 0.59375 C 10.914062 0.59375 10.035156 0.503906 9.265625 0.328125 C 8.503906 0.160156 7.710938 -0.0664062 6.890625 -0.359375 C 5.984375 -0.679688 5.300781 -0.84375 4.84375 -0.84375 C 4.125 -0.84375 3.578125 -0.363281 3.203125 0.59375 L 2.484375 0.59375 L 2.484375 -8.65625 L 3.203125 -8.65625 C 3.660156 -6.28125 4.5625 -4.394531 5.90625 -3 C 7.257812 -1.613281 9.003906 -0.921875 11.140625 -0.921875 C 12.660156 -0.921875 13.914062 -1.332031 14.90625 -2.15625 C 15.894531 -2.988281 16.390625 -4.03125 16.390625 -5.28125 C 16.390625 -5.925781 16.269531 -6.515625 16.03125 -7.046875 C 15.789062 -7.585938 15.390625 -8.164062 14.828125 -8.78125 C 14.316406 -9.3125 13.59375 -9.890625 12.65625 -10.515625 C 11.71875 -11.140625 10.476562 -11.921875 8.9375 -12.859375 C 7.625 -13.660156 6.617188 -14.296875 5.921875 -14.765625 C 5.234375 -15.234375 4.710938 -15.640625 4.359375 -15.984375 C 3.003906 -17.367188 2.328125 -19.039062 2.328125 -21 C 2.328125 -22.332031 2.664062 -23.535156 3.34375 -24.609375 C 4.019531 -25.691406 4.945312 -26.546875 6.125 -27.171875 C 7.300781 -27.804688 8.625 -28.125 10.09375 -28.125 Z M 10.09375 -28.125 "/></g></g></g><g fill="#e0bea2" fill-opacity="1"><g transform="translate(205.222603, 29.655464)"><g><path d="M 13.734375 -26.796875 L 13.5 -26.796875 C 12.164062 -26.796875 11.195312 -26.554688 10.59375 -26.078125 C 9.988281 -25.597656 9.6875 -24.734375 9.6875 -23.484375 L 9.6875 -15.296875 L 23.234375 -15.296875 L 23.234375 -23.515625 C 23.234375 -24.773438 22.925781 -25.632812 22.3125 -26.09375 C 21.695312 -26.5625 20.722656 -26.796875 19.390625 -26.796875 L 19.15625 -26.796875 L 19.15625 -27.515625 L 31.5625 -27.515625 L 31.5625 -26.796875 C 30.15625 -26.796875 29.132812 -26.566406 28.5 -26.109375 C 27.875 -25.660156 27.5625 -24.769531 27.5625 -23.4375 L 27.5625 -4 C 27.5625 -2.695312 27.875 -1.820312 28.5 -1.375 C 29.132812 -0.9375 30.15625 -0.71875 31.5625 -0.71875 L 31.5625 0 L 19.15625 0 L 19.15625 -0.71875 C 20.625 -0.71875 21.671875 -0.9375 22.296875 -1.375 C 22.921875 -1.820312 23.234375 -2.710938 23.234375 -4.046875 L 23.234375 -13.703125 L 9.6875 -13.703125 L 9.6875 -4.046875 C 9.6875 -2.710938 10 -1.820312 10.625 -1.375 C 11.257812 -0.9375 12.296875 -0.71875 13.734375 -0.71875 L 13.734375 0 L 1.40625 0 L 1.40625 -0.71875 C 2.820312 -0.75 3.835938 -0.988281 4.453125 -1.4375 C 5.066406 -1.894531 5.375 -2.765625 5.375 -4.046875 L 5.375 -23.515625 C 5.375 -24.742188 5.066406 -25.597656 4.453125 -26.078125 C 3.835938 -26.554688 2.890625 -26.796875 1.609375 -26.796875 L 1.40625 -26.796875 L 1.40625 -27.515625 L 13.734375 -27.515625 Z M 13.734375 -26.796875 "/></g></g></g><g fill="#e0bea2" fill-opacity="1"><g transform="translate(238.191682, 29.655464)"><g><path d="M 15.421875 -28.125 C 17.960938 -28.125 20.300781 -27.484375 22.4375 -26.203125 C 24.570312 -24.921875 26.265625 -23.175781 27.515625 -20.96875 C 28.773438 -18.769531 29.40625 -16.359375 29.40625 -13.734375 C 29.40625 -11.148438 28.773438 -8.753906 27.515625 -6.546875 C 26.265625 -4.347656 24.570312 -2.609375 22.4375 -1.328125 C 20.300781 -0.046875 17.960938 0.59375 15.421875 0.59375 C 12.890625 0.59375 10.550781 -0.046875 8.40625 -1.328125 C 6.269531 -2.609375 4.582031 -4.347656 3.34375 -6.546875 C 2.101562 -8.753906 1.484375 -11.148438 1.484375 -13.734375 C 1.484375 -16.359375 2.101562 -18.769531 3.34375 -20.96875 C 4.582031 -23.175781 6.269531 -24.921875 8.40625 -26.203125 C 10.550781 -27.484375 12.890625 -28.125 15.421875 -28.125 Z M 6.484375 -13.734375 C 6.484375 -11.171875 6.847656 -8.921875 7.578125 -6.984375 C 8.316406 -5.054688 9.359375 -3.5625 10.703125 -2.5 C 12.054688 -1.445312 13.628906 -0.921875 15.421875 -0.921875 C 17.210938 -0.921875 18.785156 -1.445312 20.140625 -2.5 C 21.503906 -3.5625 22.550781 -5.054688 23.28125 -6.984375 C 24.019531 -8.921875 24.390625 -11.171875 24.390625 -13.734375 C 24.390625 -16.242188 24.03125 -18.472656 23.3125 -20.421875 C 22.59375 -22.378906 21.554688 -23.894531 20.203125 -24.96875 C 18.859375 -26.050781 17.253906 -26.59375 15.390625 -26.59375 C 13.546875 -26.59375 11.953125 -26.046875 10.609375 -24.953125 C 9.273438 -23.859375 8.253906 -22.335938 7.546875 -20.390625 C 6.835938 -18.441406 6.484375 -16.222656 6.484375 -13.734375 Z M 6.484375 -13.734375 "/></g></g></g><g fill="#e0bea2" fill-opacity="1"><g transform="translate(269.077668, 29.655464)"><g><path d="M 23.484375 -19.828125 C 23.484375 -18.410156 23.09375 -17.117188 22.3125 -15.953125 C 21.539062 -14.796875 20.476562 -13.882812 19.125 -13.21875 C 17.78125 -12.550781 16.265625 -12.21875 14.578125 -12.21875 C 12.710938 -12.21875 10.9375 -12.523438 9.25 -13.140625 L 9.25 -4.046875 C 9.25 -2.710938 9.578125 -1.820312 10.234375 -1.375 C 10.890625 -0.9375 11.9375 -0.71875 13.375 -0.71875 L 13.375 0 L 1 0 L 1 -0.71875 C 2.46875 -0.71875 3.488281 -0.960938 4.0625 -1.453125 C 4.632812 -1.953125 4.921875 -2.816406 4.921875 -4.046875 L 4.921875 -23.515625 C 4.921875 -24.773438 4.613281 -25.632812 4 -26.09375 C 3.382812 -26.5625 2.460938 -26.796875 1.234375 -26.796875 L 1 -26.796875 L 1 -27.515625 L 13.0625 -27.515625 C 14.800781 -27.515625 16.460938 -27.25 18.046875 -26.71875 C 19.640625 -26.1875 20.941406 -25.335938 21.953125 -24.171875 C 22.972656 -23.015625 23.484375 -21.566406 23.484375 -19.828125 Z M 9.25 -25.484375 L 9.25 -14.546875 C 10.507812 -14.003906 11.644531 -13.734375 12.65625 -13.734375 C 14.394531 -13.734375 15.796875 -14.273438 16.859375 -15.359375 C 17.929688 -16.441406 18.46875 -17.878906 18.46875 -19.671875 C 18.46875 -21.535156 17.90625 -23.054688 16.78125 -24.234375 C 15.664062 -25.410156 14.117188 -26 12.140625 -26 C 11.253906 -26 10.289062 -25.828125 9.25 -25.484375 Z M 9.25 -25.484375 "/></g></g></g></g></g></g></svg>